<svg width="67" height="67" viewBox="0 0 67 67" fill="none" xmlns="http://www.w3.org/2000/svg">
<g clip-path="url(#clip0_167_4030)">
<path d="M23.4631 48.3264C21.7357 49.0068 20.0346 47.7768 20.7281 46.1803C22.9135 41.1814 28.0432 37.6613 34.0103 37.6613C39.9906 37.6613 45.1203 41.1814 47.2926 46.0756C47.9861 47.7898 46.1803 49.0068 44.5707 48.3264C41.3777 46.9785 37.7922 46.2195 34.0103 46.2195C30.2285 46.2195 26.6561 46.8607 23.4631 48.3264ZM27.2711 27.2188C27.2711 29.535 25.3867 31.4062 23.0836 31.4062C20.7674 31.4062 18.8961 29.535 18.8961 27.2188C18.8961 24.9025 20.7674 23.0312 23.0836 23.0312C25.3867 23.0312 27.2711 24.9025 27.2711 27.2188ZM39.8336 27.2188C39.8336 24.9025 41.7049 23.0312 44.0211 23.0312C46.3242 23.0312 48.2086 24.9025 48.2086 27.2188C48.2086 29.535 46.3242 31.4062 44.0211 31.4062C41.7049 31.4062 39.8336 29.535 39.8336 27.2188ZM67 33.5C67 52.0035 52.0035 67 33.5 67C14.9965 67 0 52.0035 0 33.5C0 14.9965 14.9965 0 33.5 0C52.0035 0 67 14.9965 67 33.5ZM33.5 6.28125C18.4643 6.28125 6.28125 18.4643 6.28125 33.5C6.28125 48.5357 18.4643 60.7188 33.5 60.7188C48.5357 60.7188 60.7188 48.5357 60.7188 33.5C60.7188 18.4643 48.5357 6.28125 33.5 6.28125Z" fill="#3B53A8"/>
</g>
<defs>
<clipPath id="clip0_167_4030">
<rect width="67" height="67" fill="white"/>
</clipPath>
</defs>
</svg>
