<?xml version="1.0" encoding="UTF-8"?>
<svg id="Layer_1" data-name="Layer 1" xmlns="http://www.w3.org/2000/svg" viewBox="0 0 269.31 268.73">
  <path d="M67.83,202.44v-63.92H206.04V62.36H104.83C92.53,41.71,80.14,21.01,67.64,.02c1.18-.05,25.18,0,36.30,0,21.11,0,42.23-.03,63.34,.01,11.93,.02,23.62,1.80,34.77,6.10,34.53,13.33,56.83,37.85,64.87,74.03,10.16,45.77-12.70,90.36-52.89,111.02-14.92,7.67-30.82,11.28-47.59,11.26-31.99-.04-97.55-.01-98.60-.01" style="fill: black;"/>
  <path d="M0,133.56V67.17H201.25v66.39H0" style="fill: black;"/>
  <path d="M134.5,207.31v61.23c-.08,.05-.14,.11-.21,.14-.07,.03-.15,.07-.21,.05-.30-.11-.61-.21-.88-.37-21.77-12.62-43.53-25.24-65.35-37.90v-23.15h66.65" style="fill: black;"/>
</svg>
