<svg width="20" height="20" viewBox="0 0 20 20" fill="none" xmlns="http://www.w3.org/2000/svg">
<path d="M19.7192 18.3124L16.0114 14.6324C17.4506 12.8368 18.1476 10.5577 17.959 8.26367C17.7705 5.96967 16.7106 3.83515 14.9975 2.29901C13.2844 0.762871 11.0481 -0.0581246 8.74862 0.00483581C6.44911 0.0677962 4.26109 1.00993 2.63448 2.63751C1.00786 4.26509 0.066292 6.4544 0.00336896 8.75529C-0.059554 11.0562 0.760954 13.2937 2.29618 15.0079C3.83141 16.722 5.96466 17.7825 8.25729 17.9712C10.5499 18.1599 12.8277 17.4625 14.6222 16.0224L18.3 19.7024C18.3929 19.7961 18.5035 19.8705 18.6253 19.9213C18.747 19.972 18.8777 19.9982 19.0096 19.9982C19.1415 19.9982 19.2722 19.972 19.3939 19.9213C19.5157 19.8705 19.6263 19.7961 19.7192 19.7024C19.8993 19.5159 20 19.2667 20 19.0074C20 18.748 19.8993 18.4988 19.7192 18.3124ZM9.01554 16.0224C7.63189 16.0224 6.27932 15.6118 5.12886 14.8427C3.9784 14.0735 3.08172 12.9802 2.55223 11.7011C2.02273 10.4221 1.88419 9.0146 2.15412 7.65673C2.42406 6.29887 3.09035 5.05159 4.06873 4.07262C5.04712 3.09365 6.29366 2.42696 7.65072 2.15687C9.00778 1.88677 10.4144 2.02539 11.6927 2.55521C12.9711 3.08502 14.0637 3.98223 14.8324 5.13337C15.6011 6.28452 16.0114 7.6379 16.0114 9.02237C16.0114 10.8789 15.2743 12.6594 13.9623 13.9721C12.6504 15.2849 10.871 16.0224 9.01554 16.0224Z" fill="#7C7C8D"/>
</svg>
